# xmcd CD database file
# 
# Track frame offsets:
# 	150
# 	17655
# 	33030
# 	46815
# 	60752
# 	73932
# 	87477
# 	109022
# 	121775
# 	130407
# 	144855
# 	166782
# 	183232
# 	195417
# 	210190
# 	230542
# 	242935
# 	261537
# 	276192
# 	288952
# 	300955
# 
# Disc length: 4280 seconds
# 
# Submitted via: Nero 6, 3, 1, 17
# 
# Revision: 0
# Processed by: cddbd v1.5.1PL0 Copyright (c) Steve Scherf et al.
#
DISCID=1710b615
DTITLE=Various Artist - The Best Of Country Songs
DYEAR=1900
DGENRE=
TTITLE0=Blue Bayou
TTITLE1=Achy Breaky Heart
TTITLE2=Rose Garden
TTITLE3=Green Green Grass Of Home
TTITLE4=Rhinestone Cowboy
TTITLE5=Southern Night
TTITLE6=Rocky Mountain High
TTITLE7=Wasted Day And Wasted Night
TTITLE8=A Dear John Letter
TTITLE9=Take Me Home Country Road
TTITLE10=El Paso
TTITLE11=Jambalaya
TTITLE12=The Most Beautiful GIrl In The World
TTITLE13=Harper Valley P.T.A.
TTITLE14=Mississippi
TTITLE15=I Walk The LIne
TTITLE16=Before The Next Tear Drop Falls
TTITLE17=Puff
TTITLE18=Blowing In The Wind
TTITLE19=By THe TIme I Get To Phonix
TTITLE20=Layla
EXTD=
EXTT0=
EXTT1=
EXTT2=
EXTT3=
EXTT4=
EXTT5=
EXTT6=
EXTT7=
EXTT8=
EXTT9=
EXTT10=
EXTT11=
EXTT12=
EXTT13=
EXTT14=
EXTT15=
EXTT16=
EXTT17=
EXTT18=
EXTT19=
EXTT20=
PLAYORDER=
